<?xml version="1.0" encoding="UTF-8" standalone="no"?>
<!DOCTYPE svg PUBLIC "-//W3C//DTD SVG 1.1//EN" "http://www.w3.org/Graphics/SVG/1.1/DTD/svg11.dtd">
<svg width="100%" height="100%" viewBox="0 0 900 244" version="1.1" xmlns="http://www.w3.org/2000/svg" xmlns:xlink="http://www.w3.org/1999/xlink" xml:space="preserve" xmlns:serif="http://www.serif.com/" style="fill-rule:evenodd;clip-rule:evenodd;stroke-linejoin:round;stroke-miterlimit:2;">
    <g id="Artboard1" transform="matrix(0.853819,0,0,0.703763,26.0975,-297.694)">
        <rect x="-30.566" y="423.003" width="1054.09" height="346.707" style="fill:none;"/>
        <g transform="matrix(1.17035,0,0,1.41989,-38.7581,322.052)">
            <g transform="matrix(0.999986,-0.00523596,0.00523596,0.999986,687.43,102.03)">
                <ellipse cx="0" cy="0" rx="31.51" ry="30.68"/>
            </g>
            <path d="M96.95,271.19L176.12,271.25C176.603,271.25 177,271.643 177,272.12L177,309.81C177,310.189 176.689,310.5 176.31,310.5L7.69,310.5C7.311,310.5 7,310.189 7,309.81L7,76.69C7,76.311 7.311,76 7.69,76L95.38,76C95.611,76 95.832,76.092 95.995,76.255C96.158,76.418 96.25,76.639 96.25,76.87L96.25,270.48C96.25,270.869 96.566,271.19 96.95,271.19Z" style="fill-rule:nonzero;"/>
            <path d="M549.2,212.68C549.4,213.147 549.587,213.14 549.76,212.66L598.76,76.48C598.868,76.193 599.143,76.001 599.45,76L641.37,76.06C641.402,76.06 641.434,76.062 641.465,76.068C641.718,76.117 641.886,76.366 641.837,76.619C641.831,76.65 641.822,76.681 641.81,76.71L547.55,309.99C547.43,310.297 547.127,310.5 546.79,310.5L500.15,310.5C499.688,310.501 499.265,310.226 499.07,309.8L392.51,76.83C392.494,76.793 392.481,76.754 392.472,76.715C392.404,76.398 392.608,76.082 392.924,76.013C392.966,76.004 393.008,76 393.05,76L489.57,76.19C489.866,76.189 490.141,76.374 490.27,76.66L549.2,212.68Z" style="fill-rule:nonzero;"/>
            <path d="M305.29,281.85C305.251,281.792 305.205,281.74 305.154,281.692C304.795,281.362 304.23,281.382 303.903,281.738C303.855,281.79 303.814,281.848 303.78,281.91C289.84,307.297 268.247,318.077 239,314.25C232.233,313.363 225.723,311.23 219.47,307.85C213.397,304.563 208.207,300.44 203.9,295.48C196.847,287.34 192.777,277.84 191.69,266.98C190.997,260.1 191.51,253.493 193.23,247.16C195.95,237.107 201.477,228.74 209.81,222.06C213.79,218.873 218.317,216.22 223.39,214.1C227.817,212.247 232.813,210.823 238.38,209.83C252.68,207.283 266.947,208.033 281.18,212.08C286.907,213.707 292.27,216.367 297.27,220.06C297.923,220.54 298.203,220.377 298.11,219.57C296.317,204.263 288.51,193.677 274.69,187.81C269.35,185.543 263.2,184.25 256.24,183.93C241.007,183.237 226.42,185.93 212.48,192.01C212.457,192.02 212.433,192.029 212.41,192.037C211.932,192.202 211.405,191.944 211.24,191.467C211.233,191.445 211.226,191.423 211.22,191.4L203.08,159.57C202.963,159.114 203.179,158.631 203.6,158.41C214.653,152.443 226.437,148.13 238.95,145.47C253.157,142.45 268.673,141.127 285.5,141.5C300.64,141.833 314.557,144.167 327.25,148.5C338.99,152.507 348.43,159.583 355.57,169.73C359.063,174.703 361.93,180.69 364.17,187.69C367.557,198.263 369.25,209.2 369.25,220.5L369.25,309.62C369.25,310.103 368.853,310.5 368.37,310.5L325.17,310.5C324.739,310.501 324.337,310.291 324.1,309.94L305.29,281.85ZM261.6,264.39C264.64,267.19 268.357,268.643 272.75,268.75C277.817,268.877 282.48,267.87 286.74,265.73C293.893,262.13 297.783,256.45 298.41,248.69C298.59,246.43 298.637,244.977 298.55,244.33C298.33,242.757 297.513,241.443 296.1,240.39C289.2,235.263 281.417,233.05 272.75,233.75C265.643,234.323 260.727,237.477 258,243.21C256.287,246.81 255.653,250.43 256.1,254.07C256.587,258.017 258.42,261.457 261.6,264.39Z" style="fill-rule:nonzero;"/>
            <path d="M812.66,243.97C815.14,247.523 818.103,250.763 821.55,253.69C835.51,265.537 851.247,268.23 868.76,261.77C877.993,258.37 886.417,253.407 894.03,246.88C894.06,246.854 894.093,246.83 894.128,246.809C894.461,246.608 894.899,246.713 895.097,247.042C895.118,247.076 895.136,247.113 895.15,247.15L907.6,279.26C907.727,279.582 907.648,279.954 907.4,280.21C895.86,292.09 882.677,301.043 867.85,307.07C861.73,309.557 855.353,311.453 848.72,312.76C832.56,315.94 816.153,315.77 799.5,312.25C786.9,309.59 775.543,304.713 765.43,297.62C759.783,293.66 754.89,289.167 750.75,284.14C742.43,274.033 737.027,262.317 734.54,248.99C732.067,235.75 732.173,222.527 734.86,209.32C736.487,201.353 739.12,193.81 742.76,186.69C745.813,180.73 749.557,175.233 753.99,170.2C765.63,156.98 780.447,148.31 798.44,144.19C813.46,140.743 828.403,140.387 843.27,143.12C856.337,145.52 867.777,150.83 877.59,159.05C882.643,163.283 887.057,168.24 890.83,173.92C896.097,181.847 899.943,190.62 902.37,200.24C902.444,200.53 902.305,200.832 902.04,200.96L812.82,243.35C812.807,243.356 812.795,243.362 812.783,243.369C812.588,243.482 812.524,243.739 812.64,243.938C812.646,243.949 812.653,243.96 812.66,243.97ZM801.733,184.56C798.718,188.783 798.443,193.323 798.33,198.25C798.15,206.09 799.28,213.997 801.72,221.97C801.724,221.983 801.728,221.995 801.733,222.008C801.839,222.278 802.149,222.414 802.42,222.308C802.434,222.302 802.447,222.296 802.46,222.29L836.57,205.85C836.923,205.681 837.092,205.264 836.96,204.89C835.627,201.083 834.083,197.323 832.33,193.61C830.357,189.443 828.227,186.343 825.94,184.31C819.947,179.003 813.473,177.9 806.52,181C804.913,181.713 802.892,182.937 801.733,184.56Z" style="fill-rule:nonzero;"/>
            <path d="M679.55,149.95C689.57,149.277 699.377,147.287 708.97,143.98C708.989,143.973 709.009,143.968 709.029,143.964C709.218,143.932 709.401,144.066 709.435,144.26C709.438,144.28 709.44,144.3 709.44,144.32L709.5,309.81C709.5,309.811 709.5,309.812 709.5,309.814C709.498,310.191 709.187,310.5 708.81,310.5L638.19,310.5C637.813,310.5 637.502,310.191 637.5,309.814C637.5,309.812 637.5,309.811 637.5,309.81L637.5,144.56C637.5,144.514 637.503,144.468 637.511,144.423C637.583,144.018 637.975,143.743 638.38,143.815C638.424,143.823 638.468,143.834 638.51,143.85C645.357,146.33 652.397,148.103 659.63,149.17C666.197,150.143 672.837,150.403 679.55,149.95Z" style="fill-rule:nonzero;"/>
        </g>
    </g>
</svg>
